<?xml version="1.0" encoding="UTF-8" standalone="no"?>
<svg
   xmlns:dc="http://purl.org/dc/elements/1.1/"
   xmlns:cc="http://creativecommons.org/ns#"
   xmlns:rdf="http://www.w3.org/1999/02/22-rdf-syntax-ns#"
   xmlns:svg="http://www.w3.org/2000/svg"
   xmlns="http://www.w3.org/2000/svg"
   viewBox="0 0 1056 816"
   height="816"
   width="1056"
   xml:space="preserve"
   id="svg2"
   version="1.1"><metadata
     id="metadata8"><rdf:RDF><cc:Work
         rdf:about=""><dc:format>image/svg+xml</dc:format><dc:type
           rdf:resource="http://purl.org/dc/dcmitype/StillImage" /></cc:Work></rdf:RDF></metadata><defs
     id="defs6"><clipPath
       id="clipPath18"
       clipPathUnits="userSpaceOnUse"><path
         id="path16"
         d="M 0,612 H 792 V 0 H 0 Z" /></clipPath></defs><g
     transform="matrix(1.3333333,0,0,-1.3333333,0,816)"
     id="g10"><g
       id="g12"><g
         clip-path="url(#clipPath18)"
         id="g14"><g
           transform="translate(253.8721,322.7368)"
           id="g20"><path
             id="path22"
             style="fill:#e31a28;fill-opacity:1;fill-rule:evenodd;stroke:none"
             d="m 0,0 c 1.752,-0.989 3.514,-1.718 5.103,-2.781 4.905,-3.281 8.586,-7.618 10.411,-13.205 3.285,-10.06 2.455,-19.914 -2.577,-29.263 -3.999,-7.428 -10.028,-12.64 -18.011,-15.483 -3.365,-1.198 -6.851,-1.865 -10.437,-1.867 -20.119,-0.007 -40.239,0.005 -60.358,-0.026 -1.006,-0.002 -1.226,0.259 -1.225,1.249 0.029,35.319 0.031,70.638 10e-4,105.957 -10e-4,1.405 0.556,2.526 1.398,3.46 2.75,3.049 6.014,4.897 10.344,4.872 16.079,-0.095 32.159,-0.045 48.238,-0.035 5.63,0.004 11.05,-0.956 16.095,-3.534 C 4.727,46.408 9.102,42.051 11.619,36.097 14.035,30.381 14.534,24.383 13.3,18.273 12.13,12.483 9.298,7.662 4.971,3.646 3.465,2.25 1.717,1.226 0,0" /></g><g
           transform="translate(466.1484,287.7373)"
           id="g24"><path
             id="path26"
             style="fill:#803a7c;fill-opacity:1;fill-rule:evenodd;stroke:none"
             d="m 0,0 c 1.476,3.915 2.368,7.97 3.442,11.971 3.199,11.904 6.827,23.875 10.411,35.542 1.166,3.916 2.54,7.652 4.549,11.213 0.613,1.085 1.375,2.064 2.203,2.98 1.333,1.474 2.909,2.213 5.028,2.213 2.119,0 12.162,-0.036 18.241,0.003 0.949,0.006 1.135,-0.184 0.838,-1.114 C 40.042,48.177 35.382,33.542 30.763,18.896 26.084,4.059 21.452,-10.793 16.801,-25.639 c -0.615,-1.962 -0.611,-1.964 -2.627,-1.964 -9.558,0 -19.116,0.038 -28.673,-0.042 -1.33,-0.01 -1.636,0.569 -1.95,1.609 -3.917,12.943 -7.872,25.874 -11.804,38.813 -5.068,16.678 -10.115,33.362 -15.207,50.033 -0.29,0.948 -0.141,1.116 0.819,1.112 7.598,-0.035 15.197,-0.035 22.795,0.002 0.877,0.004 1.224,-0.264 1.466,-1.102 3.086,-10.695 6.231,-21.372 9.323,-32.064 C -6.185,20.831 -3.359,10.89 -0.499,0.959 -0.415,0.669 -0.445,0.307 0,0" /></g><g
           transform="translate(320.3716,260.1416)"
           id="g28"><path
             id="path30"
             style="fill:#fb7626;fill-opacity:1;fill-rule:evenodd;stroke:none"
             d="m 0,0 c -11.373,0.07 -21.453,3.765 -29.845,11.394 -6.868,6.244 -11.944,13.822 -14.498,22.873 -2.522,8.936 -2.495,17.842 0.341,26.755 3.053,9.599 8.692,17.286 16.79,23.158 6.65,4.822 14.062,7.734 22.304,8.556 8.153,0.813 15.999,-0.329 23.539,-3.404 4.463,-1.821 8.44,-4.536 12.061,-7.712 3.873,-3.396 7.045,-7.374 9.552,-11.892 2.8,-5.047 4.674,-10.422 5.492,-16.108 C 46.954,45.159 45.969,36.88 42.648,29.001 40.356,23.563 37.075,18.724 32.971,14.408 27.65,8.814 21.331,4.863 14.107,2.314 10.316,0.977 4.976,-0.03 0,0" /></g><g
           transform="translate(370.0142,317.7539)"
           id="g32"><path
             id="path34"
             style="fill:#368943;fill-opacity:1;fill-rule:evenodd;stroke:none"
             d="m 0,0 c 0,18.796 0.008,37.592 -0.022,56.387 -0.001,1.056 0.205,1.439 1.359,1.415 3.878,-0.078 7.758,-0.012 11.637,-0.034 4.695,-0.027 8.366,-2.704 9.617,-6.983 0.293,-1.001 0.391,-2.038 0.391,-3.074 0.007,-34.712 0,-69.424 0.031,-104.137 10e-4,-1.052 -0.333,-1.22 -1.283,-1.215 -6.837,0.04 -13.676,0.043 -20.515,-0.003 -1.004,-0.006 -1.24,0.268 -1.238,1.256 C 0.008,-37.592 0,-18.796 0,0" /></g><g
           transform="translate(397.6592,306.125)"
           id="g36"><path
             id="path38"
             style="fill:#005ba1;fill-opacity:1;fill-rule:evenodd;stroke:none"
             d="m 0,0 c 0,14.795 0.013,29.591 -0.025,44.387 -0.003,1.105 0.279,1.402 1.381,1.383 3.878,-0.07 7.759,0.037 11.636,-0.045 3.894,-0.083 7.029,-1.611 8.939,-5.182 0.771,-1.443 1.047,-3.009 1.047,-4.622 0.005,-26.952 -0.003,-53.903 0.029,-80.856 10e-4,-0.979 -0.349,-1.075 -1.169,-1.072 -6.878,0.028 -13.756,0.038 -20.634,-0.008 -1.017,-0.006 -1.228,0.293 -1.226,1.269 C 0.011,-29.831 0,-14.915 0,0" /></g><g
           transform="translate(514.877,306.0068)"
           id="g40"><path
             id="path42"
             style="fill:#4ea134;fill-opacity:1;fill-rule:evenodd;stroke:none"
             d="m 0,0 c 0,14.836 0.013,29.673 -0.025,44.509 -0.003,1.103 0.285,1.398 1.382,1.378 3.838,-0.069 7.679,0.033 11.517,-0.043 3.886,-0.077 7.056,-1.547 8.982,-5.114 0.755,-1.397 1.06,-2.92 1.06,-4.498 0.004,-27.033 0,-54.066 0.017,-81.099 0.001,-0.747 -0.151,-1.028 -0.973,-1.024 -6.998,0.034 -13.996,0.046 -20.994,-0.008 -1.123,-0.009 -0.968,0.595 -0.968,1.271 C 0,-29.752 0,-14.876 0,0" /></g><g
           transform="translate(426.1143,374.3789)"
           id="g44"><path
             id="path46"
             style="fill:#fead00;fill-opacity:1;fill-rule:evenodd;stroke:none"
             d="m 0,0 c -1.266,3.361 -3.098,6.274 -6.291,8.158 -2.865,1.69 -5.958,2.362 -9.256,2.213 -0.397,-0.018 -0.798,-0.002 -1.278,-0.002 0.168,0.413 0.552,0.511 0.859,0.68 7.584,4.171 15.689,6.839 24.188,8.376 9.753,1.763 19.372,1.262 28.852,-1.654 1.403,-0.431 2.784,-0.929 4.109,-1.59 C 41.035,15.731 40.7,15.95 40.48,15.946 37.176,15.9 34.771,13.116 35.354,9.861 35.995,6.295 38.414,4.003 41.227,2.037 41.746,1.673 42.276,1.326 42.802,0.971 42.343,0.602 41.886,0.832 41.446,1 34.859,3.517 28.004,4.476 21.006,4.195 15.53,3.976 10.142,3.007 4.922,1.257 3.786,0.876 2.656,0.479 1.515,0.118 1.025,-0.038 0.525,-0.23 0,0" /></g><g
           transform="translate(409.8027,355.668)"
           id="g48"><path
             id="path50"
             style="fill:#000000;fill-opacity:1;fill-rule:evenodd;stroke:none"
             d="m 0,0 c -7.718,-0.043 -13.068,5.72 -13.067,12.569 10e-4,7.31 5.63,12.536 12.675,12.572 C 6.27,25.175 12.09,20.249 12.15,12.646 12.205,5.849 6.877,0.037 0,0" /></g><g
           transform="translate(426.1143,374.3789)"
           id="g52"><path
             id="path54"
             style="fill:#e47322;fill-opacity:1;fill-rule:evenodd;stroke:none"
             d="m 0,0 c 5.071,1.81 10.218,3.343 15.567,4.074 6.859,0.937 13.647,0.525 20.403,-0.989 2.347,-0.526 4.512,-1.55 6.832,-2.114 4.406,-2.304 8.454,-5.082 11.729,-8.881 0.227,-0.096 0.374,-0.251 0.38,-0.51 -0.014,-0.116 -0.064,-0.214 -0.146,-0.296 -1.474,0.872 -2.931,1.773 -4.423,2.612 C 42.671,-1.794 34.416,0.07 25.683,-0.795 20.458,-1.313 15.49,-3.055 10.738,-5.316 6.834,-7.174 3.19,-9.486 -0.438,-11.822 -0.692,-11.985 -0.901,-12.285 -1.371,-12.115 0.862,-8.274 0.962,-4.193 0,0" /></g><g
           transform="translate(480.8896,366.728)"
           id="g56"><path
             id="path58"
             style="fill:#000000;fill-opacity:1;fill-rule:evenodd;stroke:none"
             d="m 0,0 c -0.289,0.765 -0.854,1.32 -1.407,1.893 -3.326,3.446 -7.394,5.932 -11.234,8.714 -2.078,1.507 -3.98,3.186 -5.182,5.53 -0.904,1.764 -0.402,3.38 0.64,4.804 0.993,1.357 2.429,2.015 4.181,1.659 3.053,-0.62 5.455,-2.305 7.529,-4.556 C -2.804,15.146 -0.857,11.841 0.094,8.013 0.824,5.07 1.301,2.085 0.64,-0.955 0.533,-1.012 0.435,-1.003 0.348,-0.917 0.143,-0.646 0.123,-0.303 0,0" /></g><g
           transform="translate(486.9609,235.7275)"
           id="g60"><path
             id="path62"
             style="fill:#000000;fill-opacity:1;fill-rule:evenodd;stroke:none"
             d="M 0,0 C -0.166,1.724 0.116,3.3 0.22,4.884 0.273,5.7 0.196,6.221 -0.863,6.193 -1.928,6.167 -3.004,6.332 -4.022,6.718 c -0.349,0.132 -0.666,0.258 -0.65,0.728 0.016,0.456 0.318,0.57 0.672,0.713 0.648,0.262 1.33,0.223 1.998,0.269 1.589,0.11 2.193,0.652 2.451,2.176 0.219,1.296 0.337,2.6 0.359,3.914 0.014,0.945 0.284,1.812 0.863,2.556 0.569,0.735 1.372,0.674 2.052,0.299 C 4.328,17.039 4.271,16.522 4.018,15.782 3.252,13.553 3.104,11.191 3.035,8.839 3.029,8.643 3.065,8.315 3.268,8.387 4.203,8.714 5.014,7.76 6.011,8.25 6.868,8.672 7.812,8.291 8.616,7.867 9.05,7.639 9.508,7.2 9.166,6.59 8.687,5.732 7.806,5.541 7.011,5.806 5.865,6.187 4.726,6.091 3.577,6.116 3.28,6.123 2.854,6.226 2.815,5.765 2.567,2.856 1.876,-0.081 3.104,-2.927 3.903,-4.777 5.314,-5.888 7.379,-6.051 8.472,-6.137 8.723,-6.539 8.273,-7.518 7.441,-9.331 6.475,-9.607 4.812,-8.429 4.134,-7.948 3.383,-7.607 2.729,-7.064 0.437,-5.164 -0.021,-2.621 0,0" /></g><g
           transform="translate(543.2363,227.0146)"
           id="g64"><path
             id="path66"
             style="fill:#000000;fill-opacity:1;fill-rule:evenodd;stroke:none"
             d="m 0,0 c -0.944,-0.059 -1.62,0.169 -2.066,0.906 -0.343,0.567 -0.62,1.267 -0.247,1.775 0.42,0.57 1.171,0.352 1.752,0.051 C 0.641,2.112 1.875,2.073 3.151,2.405 4.537,2.766 5.609,4 5.812,5.465 6.018,6.954 5.559,7.788 4.039,8.624 2.986,9.203 1.841,9.559 0.709,9.942 c -1.92,0.653 -3.122,1.957 -3.072,3.341 0.099,2.775 1.215,4.303 3.517,4.886 1.675,0.423 3.394,0.4 5.095,0.557 0.567,0.051 0.923,-0.164 1.06,-0.719 0.2,-0.82 0.038,-1.543 -0.485,-2.222 C 6.408,15.245 6.12,15.721 5.82,15.865 4.676,16.418 3.569,16.911 2.208,16.619 0.879,16.335 -0.147,15.35 -0.137,14.042 -0.129,13.172 0.525,12.775 1.182,12.509 2.286,12.061 3.426,11.687 4.57,11.352 8.683,10.147 8.813,7.203 7.716,4.353 6.729,1.794 4.871,0.268 1.985,0.297 1.262,0.304 0.613,-0.185 0,0" /></g><g
           transform="translate(594.1367,238.9961)"
           id="g68"><path
             id="path70"
             style="fill:#000000;fill-opacity:1;fill-rule:evenodd;stroke:none"
             d="M 0,0 C 1.366,2.319 3.346,3.604 5.965,3.953 7.035,4.097 7.545,3.565 7.226,2.536 7.098,2.122 6.926,1.717 6.73,1.329 6.326,0.526 5.703,0.229 4.866,0.671 3.796,1.236 2.965,0.765 2.359,-0.028 0.183,-2.875 -0.528,-6.033 0.565,-9.516 c 0.19,-0.604 0.17,-1.196 -0.319,-1.644 -0.569,-0.522 -2.465,-0.761 -2.922,-0.341 -0.504,0.463 -0.262,1.077 -0.157,1.651 0.562,3.083 0.413,6.197 0.317,9.3 -0.055,1.826 -0.218,3.65 -0.495,5.462 -0.077,0.502 0.08,1.032 0.455,1.437 0.674,0.726 1.482,0.902 2.391,0.508 C 0.752,6.46 0.519,5.654 0.357,4.996 -0.04,3.367 -0.207,1.733 0,0" /></g><g
           transform="translate(480.8896,366.728)"
           id="g72"><path
             id="path74"
             style="fill:#e2d8c7;fill-opacity:1;fill-rule:evenodd;stroke:none"
             d="M 0,0 C 0.268,-0.271 0.488,-0.568 0.564,-0.953 0.252,-1.152 0.135,-0.928 0.019,-0.701 -0.069,-0.554 -0.156,-0.406 -0.244,-0.259 -0.163,-0.172 -0.081,-0.086 0,0" /></g><g
           transform="translate(480.9082,366.0269)"
           id="g76"><path
             id="path78"
             style="fill:#e9a666;fill-opacity:1;fill-rule:evenodd;stroke:none"
             d="m 0,0 c 0.182,-0.084 0.363,-0.167 0.546,-0.251 0,0 0.075,-0.002 0.075,-0.002 C 0.478,-0.829 0.478,-0.829 -0.029,-0.364 -0.02,-0.243 -0.01,-0.122 0,0" /></g><g
           transform="translate(216.939,280.3789)"
           id="g80"><path
             id="path82"
             style="fill:#fefefe;fill-opacity:1;fill-rule:evenodd;stroke:none"
             d="m 0,0 c -6.249,0 -11.405,0.023 -16.561,-0.021 -0.941,-0.008 -1.204,0.238 -1.2,1.196 0.036,9.713 0.033,19.426 0.003,29.138 -0.003,0.87 0.175,1.155 1.107,1.152 9.153,-0.038 18.307,0.029 27.46,-0.053 2.899,-0.026 5.808,-0.234 8.65,-0.982 5.06,-1.33 8.633,-4.133 9.787,-9.49 C 30.453,15.338 30.26,9.973 26.497,5.278 23.837,1.96 20.133,0.517 16.037,0.179 10.338,-0.29 4.617,0.127 0,0" /></g><g
           transform="translate(215.6064,355.895)"
           id="g84"><path
             id="path86"
             style="fill:#fefefe;fill-opacity:1;fill-rule:evenodd;stroke:none"
             d="m 0,0 c 4.957,0 9.915,0.052 14.871,-0.025 2.059,-0.032 4.159,0.004 6.128,-0.828 4.417,-1.867 6.843,-5.274 7.308,-9.955 0.506,-5.098 -1.368,-9.231 -5.693,-12.117 -2.326,-1.551 -4.967,-2.169 -7.715,-2.179 -10.034,-0.039 -20.068,-0.005 -30.103,-0.033 -0.895,-0.003 -1.234,0.162 -1.228,1.167 0.047,7.596 0.043,15.192 0.004,22.787 -0.005,0.949 0.243,1.214 1.197,1.205 C -10.155,-0.024 -5.077,0 0,0" /></g><g
           transform="translate(589.5059,280.873)"
           id="g88"><path
             id="path90"
             style="fill:#9d1634;fill-opacity:1;fill-rule:evenodd;stroke:none"
             d="m 0,0 c -3.423,-3.194 -7.548,-5.185 -12.051,-5.974 -4.402,-0.77 -8.919,-0.739 -12.993,1.719 -1.328,0.801 -2.421,1.87 -2.934,3.357 -1.382,4 -1.656,8.07 -0.026,12.037 1.486,3.615 4.283,6.063 7.732,7.834 5.102,2.619 10.623,3.828 16.187,4.902 2.741,0.529 5.49,1.029 8.172,1.814 C 4.86,25.915 4.947,25.672 4.94,25.002 4.915,22.364 4.931,19.727 4.931,17.09 4.931,15.051 4.868,13.011 4.943,10.976 5.109,6.484 3.182,2.97 0,0 m 25.763,51.415 c -0.011,3.31 -1.166,6.256 -3.199,8.823 -2.525,3.189 -5.924,5.159 -9.647,6.645 -6.153,2.457 -12.626,3.373 -19.163,3.772 -5.788,0.353 -11.557,-0.053 -17.247,-1.31 -5.25,-1.159 -10.352,-2.696 -14.783,-5.869 -1.917,-1.372 -3.584,-3.016 -4.837,-5.067 -2.017,-3.303 -2.559,-6.89 -2.387,-10.682 0.044,-0.959 0.283,-1.192 1.211,-1.185 5.96,0.039 11.919,0.039 17.878,0.004 1.178,-0.007 2.222,-0.031 2.547,1.436 0.069,0.313 0.399,0.591 0.655,0.836 1.51,1.441 3.389,2.228 5.319,2.886 4.132,1.406 8.383,1.498 12.658,0.951 2.556,-0.327 4.964,-1.148 7.148,-2.579 C 4.975,48.07 5.499,43.321 2.873,40.883 1.515,39.624 -0.06,38.705 -1.82,38.09 c -5.232,-1.828 -10.723,-2.483 -16.116,-3.568 -6.322,-1.272 -12.546,-2.795 -18.26,-5.903 -4.41,-2.399 -7.776,-5.794 -9.771,-10.468 -2.226,-5.215 -2.549,-10.636 -1.804,-16.179 0.708,-5.275 2.667,-10.008 6.244,-13.981 4.555,-5.06 10.529,-7.475 17.066,-8.365 6.355,-0.864 12.738,-0.451 19.065,0.712 6.791,1.248 13.363,3.049 19.286,6.783 7.91,4.987 11.847,12.139 11.876,21.459 0.02,6.92 0.004,13.839 0.004,20.758 0,7.359 0.016,14.718 -0.007,22.077" /></g><g
           transform="translate(312.6499,334.1611)"
           id="g92"><path
             id="path94"
             style="fill:#d9383f;fill-opacity:1;fill-rule:evenodd;stroke:none"
             d="m 0,0 v 4.199 c 0,1.932 0.552,2.728 2.382,3.427 3.074,1.175 6.253,1.082 9.447,0.773 0.87,-0.084 1.727,-0.243 2.56,-0.547 2.278,-0.833 3.298,-2.656 3.829,-4.844 0.451,-1.859 0.819,-3.737 0.733,-5.666 -0.028,-0.62 0.249,-0.954 0.797,-1.175 2.413,-0.974 4.664,-2.285 7.018,-3.38 0.825,-0.383 1.078,-0.941 1.061,-1.795 -0.035,-1.673 -0.104,-3.352 0.36,-4.994 1.11,-3.921 3.045,-5.455 7.505,-6.012 1.379,-0.172 2.756,-0.405 4.11,-0.714 3.417,-0.778 5.215,-3.248 5.603,-6.706 0.447,-3.986 -1.281,-7.372 -2.384,-10.958 -0.33,-1.07 -0.858,-1.362 -1.939,-1.322 -2.437,0.091 -4.879,0.006 -7.319,0.041 -0.795,0.012 -0.93,-0.311 -0.845,-1.019 0.359,-2.977 -0.513,-5.605 -2.522,-7.788 -3.025,-3.288 -6.864,-4.179 -11.129,-3.377 -1.029,0.193 -1.187,-0.04 -1.307,-0.986 -0.377,-2.99 -0.584,-6.037 -2.246,-8.711 -0.362,-0.581 -0.798,-0.963 -1.44,-1.17 -2.576,-0.828 -5.206,-0.959 -7.887,-0.764 -1.983,0.142 -3.973,0.098 -5.909,0.706 -0.785,0.246 -1.149,0.685 -1.416,1.428 -1.151,3.204 -1.548,6.584 -2.362,9.867 -0.666,2.686 -1.701,3.412 -4.474,2.854 -2.114,-0.426 -4.232,-0.725 -6.402,-0.663 -2.809,0.081 -4.783,2.017 -4.783,4.801 0,2.72 -0.02,5.439 0.013,8.159 0.009,0.73 -0.248,1.162 -0.877,1.539 -1.791,1.073 -3.688,1.9 -5.648,2.591 -2.4,0.847 -3.738,2.657 -3.812,5.22 -0.02,0.679 0.071,1.372 -0.032,2.037 -0.45,2.921 1.326,4.977 2.715,7.191 0.292,0.466 0.748,0.386 1.181,0.387 2.839,0.003 5.68,0.027 8.519,-0.014 0.78,-0.011 1.117,0.265 1.341,1.006 0.876,2.902 1.453,5.875 2.059,8.835 0.213,1.044 0.624,1.265 1.584,1.252 3.559,-0.048 7.12,0.018 10.679,-0.042 1.025,-0.018 1.299,0.316 1.257,1.295 C -0.053,-3.362 0,-1.68 0,0" /></g><g
           transform="translate(419.4687,371.7695)"
           id="g96"><path
             id="path98"
             style="fill:#fefefe;fill-opacity:1;fill-rule:evenodd;stroke:none"
             d="m 0,0 c 0.535,-2.854 -0.517,-5.151 -2.657,-6.932 -3.039,-2.526 -7.757,-2.215 -10.156,0.56 -3.184,3.687 -3.009,7.872 0.302,11.029 1.999,1.905 5.803,2.664 8.643,1.094 0.023,-0.447 -0.212,-0.384 -0.486,-0.245 -2.261,0.428 -4.404,-1.052 -5.13,-2.812 -0.754,-1.824 -0.127,-4.129 1.613,-5.427 2.11,-1.576 6.05,-0.977 6.938,1.971 0.126,0.416 0.287,0.821 0.432,1.231 C -0.05,0.616 -0.242,0.076 0,0" /></g><g
           transform="translate(419.4687,371.7695)"
           id="g100"><path
             id="path102"
             style="fill:#f1f1f1;fill-opacity:1;fill-rule:evenodd;stroke:none"
             d="M 0,0 -0.501,0.469 C -0.514,0.867 -0.526,1.267 -0.54,1.666 -0.455,1.748 -0.371,1.744 -0.288,1.664 -0.081,1.128 0.178,0.602 0,0" /></g><g
           transform="translate(415.1152,377.2754)"
           id="g104"><path
             id="path106"
             style="fill:#a1a1a1;fill-opacity:1;fill-rule:evenodd;stroke:none"
             d="M 0,0 C 0.159,0.087 0.41,-0.007 0.485,0.245 0.719,0.153 0.952,0.062 1.186,-0.031 1.225,-0.247 1.185,-0.377 0.926,-0.271 0.604,-0.223 0.268,-0.231 0,0" /></g><g
           transform="translate(416.041,377.0049)"
           id="g108"><path
             id="path110"
             style="fill:#787878;fill-opacity:1;fill-rule:evenodd;stroke:none"
             d="M 0,0 C 0.086,0.08 0.173,0.16 0.26,0.24 0.496,0.184 0.808,-0.009 0.68,-0.176 0.475,-0.442 0.213,-0.147 0,0" /></g><g
           transform="translate(419.1807,373.4336)"
           id="g112"><path
             id="path114"
             style="fill:#bbbbbb;fill-opacity:1;fill-rule:evenodd;stroke:none"
             d="M 0,0 -0.252,0.001 C -0.436,0.177 -0.447,0.394 -0.402,0.634 -0.047,0.556 -0.024,0.277 0,0" /></g><g
           transform="translate(567.125,236.4463)"
           id="g116"><path
             id="path118"
             style="fill:#000000;fill-opacity:1;fill-rule:evenodd;stroke:none"
             d="m 0,0 c -0.88,-3.161 -3.224,-4.921 -6.026,-6.192 -0.471,-0.215 -1.131,-0.206 -1.649,-0.079 -0.776,0.19 -1.429,0.545 -1.342,1.625 0.111,1.347 0.027,2.71 0.027,4.067 h 0.01 c 0,1.357 0.001,2.715 0,4.072 -0.003,1.917 0.734,2.736 2.638,2.988 1.188,0.157 2.392,0.351 3.544,-0.044 C -0.338,5.595 0.805,2.895 0,0 M 0.397,7.944 C -1.468,8.87 -3.47,9.443 -5.602,8.675 -6.196,8.461 -6.845,8.401 -7.468,8.266 c -1.373,-0.3 -1.466,-0.24 -1.094,1.177 0.24,0.914 -0.143,1.227 -0.939,1.166 -1.77,-0.133 -2.888,-0.782 -2.28,-2.788 0.364,-1.208 0.192,-1.992 -1.078,-2.417 -0.395,-0.132 -0.979,-0.473 -0.855,-0.825 0.147,-0.414 0.693,-0.882 1.235,-0.745 1.008,0.254 1.011,-0.489 0.993,-1.007 -0.119,-3.207 0.234,-6.441 -0.564,-9.612 -0.139,-0.555 -0.205,-1.236 -0.007,-1.741 0.334,-0.85 0.399,-1.691 0.396,-2.569 -0.006,-2.311 -0.012,-4.617 -0.43,-6.908 -0.216,-1.186 0.122,-1.465 1.362,-1.492 0.628,-0.015 1.179,0.177 1.704,0.471 0.359,0.201 0.697,0.495 0.522,0.96 -0.722,1.919 -0.359,3.947 -0.597,5.916 -0.102,0.846 -0.043,1.811 0.291,2.57 0.172,0.39 1.11,0.435 1.696,0.654 0.259,0.097 0.509,0.228 0.754,0.359 2.426,1.294 4.567,2.945 6.566,4.846 1.945,1.851 2.811,4.077 3.071,6.386 C 3.18,5.101 2.39,6.955 0.397,7.944" /></g><g
           transform="translate(607.2783,229.6748)"
           id="g120"><path
             id="path122"
             style="fill:#000000;fill-opacity:1;fill-rule:evenodd;stroke:none"
             d="M 0,0 C -0.945,-0.133 -1.725,0.37 -2.434,0.953 -3.213,1.593 -3.395,2.779 -2.729,3.497 -1.94,4.348 -1.16,5.199 0.077,5.573 1.057,5.87 1.969,6.305 3.03,6.371 4.005,6.432 4.384,6.003 4.577,5.14 5.184,2.429 3.09,0.031 0,0 M 7.143,5.108 C 7.14,5.662 7.089,6.279 7.306,6.757 7.692,7.611 8.356,8.38 7.095,9.064 6.999,9.116 7.056,9.441 7.034,9.639 c -0.08,0.751 -0.13,1.507 -0.252,2.252 -0.362,2.191 -2.288,4.46 -4.123,4.663 -2.037,0.225 -4.057,-0.066 -6.007,-0.715 -0.679,-0.227 -1.368,-1.607 -1.047,-2.053 0.476,-0.662 1.324,-0.573 1.704,-0.176 0.955,1.004 2.15,0.815 3.132,0.596 C 2.68,13.708 4.193,12.804 4.568,10.358 4.721,9.366 4.443,8.654 3.308,8.484 1.208,8.168 -0.569,7.052 -2.36,6.032 -3.545,5.357 -4.463,4.331 -5.053,3.063 c -0.752,-1.617 -0.568,-3.197 0.526,-4.019 1.393,-1.047 2.932,-1.53 4.704,-1.148 1.404,0.302 2.76,0.751 4.21,1.274 C 4.479,-1.504 4.476,-2.006 4.191,-2.55 3.923,-3.063 3.796,-3.683 3.738,-4.269 3.651,-5.145 4.353,-5.953 5.064,-5.922 c 1.145,0.051 2.41,1.283 2.267,2.445 -0.352,2.861 -0.176,5.723 -0.188,8.585" /></g><g
           transform="translate(578.5928,242.5449)"
           id="g124"><path
             id="path126"
             style="fill:#000000;fill-opacity:1;fill-rule:evenodd;stroke:none"
             d="M 0,0 C 1.431,1.008 3.013,1.137 4.623,0.28 5.678,-0.281 5.877,-1.231 5.794,-2.265 5.729,-3.06 4.97,-2.913 4.479,-2.951 3.286,-3.042 2.086,-3.035 0.889,-3.049 -0.265,-3.063 -1.418,-3.052 -2.799,-3.052 -1.889,-1.796 -1.063,-0.749 0,0 m 7.328,-12.176 c -1.63,-0.702 -3.331,-0.76 -5.027,-0.671 -2.798,0.148 -6.072,1.873 -6.14,5.701 -0.022,1.243 0.556,1.975 1.84,2.077 0.874,0.068 1.75,0.109 2.625,0.163 2.267,0.194 4.531,0.065 6.792,-0.056 0.893,-0.049 1.357,0.415 1.294,1.175 C 8.592,-2.335 8.537,-0.855 7.904,0.515 7.57,1.238 7.067,1.733 6.36,2.104 3.896,3.393 1.448,2.819 -0.721,1.638 c -3.573,-1.947 -5.511,-5.131 -5.56,-9.259 -0.034,-2.851 0.966,-5.199 3.765,-6.484 2.861,-1.313 5.875,-1.684 8.971,-1.558 1.149,0.047 2.213,1.404 2.058,2.531 -0.091,0.657 -0.448,1.274 -1.185,0.956" /></g><g
           transform="translate(530.6602,242.8887)"
           id="g128"><path
             id="path130"
             style="fill:#000000;fill-opacity:1;fill-rule:evenodd;stroke:none"
             d="M 0,0 C 1.486,0.799 2.929,0.589 4.297,-0.213 5.244,-0.768 5.359,-1.777 5.199,-2.742 5.09,-3.401 4.373,-3.263 3.909,-3.296 2.721,-3.381 1.526,-3.379 0.334,-3.393 -0.82,-3.406 -1.974,-3.396 -3.443,-3.396 -2.239,-2.052 -1.407,-0.756 0,0 m 6.686,-12.55 c -1.707,-0.688 -3.517,-0.831 -5.275,-0.618 -3.008,0.366 -5.669,2.006 -5.807,5.664 -0.046,1.253 0.54,2.008 1.82,2.086 3.097,0.189 6.199,0.345 9.301,0.115 C 7.628,-5.37 8.187,-4.99 8.138,-4.121 8.056,-2.661 7.947,-1.187 7.326,0.184 6.998,0.906 6.474,1.392 5.771,1.767 3.396,3.034 0.979,2.508 -1.112,1.415 c -3.64,-1.9 -5.618,-5.078 -5.741,-9.291 -0.074,-2.573 1.129,-5.531 3.922,-6.666 2.363,-0.959 4.795,-1.406 7.32,-1.481 0.4,0 0.8,-0.011 1.2,0.002 1.254,0.041 2.265,1.007 2.361,2.248 0.069,0.893 -0.544,1.513 -1.264,1.223" /></g><g
           transform="translate(504.3369,242.9961)"
           id="g132"><path
             id="path134"
             style="fill:#000000;fill-opacity:1;fill-rule:evenodd;stroke:none"
             d="M 0,0 C 2.068,0.964 4.524,0.079 4.857,-1.784 5.084,-3.048 4.862,-3.353 3.566,-3.417 2.412,-3.474 1.256,-3.487 0.101,-3.5 -1.056,-3.514 -2.213,-3.503 -3.567,-3.503 -2.528,-1.984 -1.544,-0.72 0,0 m 6.458,-12.635 c -0.99,-0.631 -2.086,-0.47 -3.126,-0.623 -3.556,-0.521 -7.519,1.125 -7.969,5.244 -0.175,1.592 0.3,2.396 1.844,2.489 3.055,0.184 6.11,0.308 9.173,0.135 1.108,-0.063 1.705,0.623 1.549,1.704 -0.143,0.987 -0.345,1.965 -0.555,2.94 C 7.142,0.332 6.515,1.099 5.525,1.619 2.928,2.986 0.442,2.25 -1.869,1.028 -4.666,-0.451 -6.182,-2.979 -6.874,-6.05 c -0.772,-3.418 0.281,-7.4 4.194,-8.819 2.184,-0.792 4.435,-1.249 6.767,-1.253 0.519,0 1.045,-0.048 1.558,0.009 1.363,0.149 2.265,1.483 1.917,2.777 -0.156,0.582 -0.556,1.051 -1.104,0.701" /></g><g
           transform="translate(351.7456,300.0039)"
           id="g136"><path
             id="path138"
             style="fill:#fef55e;fill-opacity:1;fill-rule:evenodd;stroke:none"
             d="m 0,0 c -2.466,1.308 -4.861,1.085 -7.15,0.066 -3.253,-1.445 -5.6,-3.751 -6.375,-7.396 -0.26,-1.217 0.093,-2.302 0.533,-3.365 0.301,-0.729 0.123,-0.869 -0.601,-0.866 -2.814,0.015 -5.588,-0.421 -8.224,-1.35 -4.321,-1.524 -5.709,-4.949 -4.912,-9.13 0.35,-1.828 0.27,-1.971 -1.629,-2.226 -2.312,-0.31 -4.63,-0.071 -6.941,-0.169 -0.684,-0.028 -0.873,0.305 -0.974,0.913 -0.449,2.672 -0.907,5.345 -1.428,8.005 -0.561,2.864 -2.021,3.972 -4.969,4.225 -3.313,0.284 -6.626,0.176 -9.939,0.186 -0.748,0.002 -1.087,0.24 -1.421,0.929 -1.299,2.689 -1.422,5.294 -0.103,8.046 1.024,2.139 0.259,3.595 -2.053,4.313 -1.444,0.448 -2.942,0.718 -4.393,1.146 -3.156,0.931 -4.484,1.968 -4.305,6.18 0.043,1.008 0.148,1.966 0.485,2.921 0.224,0.639 0.566,0.848 1.229,0.841 2.799,-0.032 5.598,-0.013 8.397,-0.013 2.334,0 3.45,0.873 4.257,3.145 0.719,2.023 0.673,4.163 1.087,6.23 0.015,0.078 0.012,0.16 0.027,0.238 0.432,2.235 0.513,2.295 2.735,2.05 2.978,-0.328 5.964,-0.416 8.959,-0.421 1.032,-0.002 1.526,0.456 1.836,1.344 0.936,2.682 1.1,5.47 1.051,8.265 -0.02,1.129 0.237,1.554 1.432,1.481 1.713,-0.103 3.439,-0.067 5.156,-0.008 0.852,0.028 1.117,-0.256 1.066,-1.094 -0.233,-3.788 0.846,-7.197 3.318,-10.062 1.576,-1.826 3.735,-2.549 6.142,-2.303 0.728,0.074 1.03,0.033 0.911,-0.804 -0.717,-5.048 2.014,-8.097 6.078,-10.344 C -7.655,9.28 -4.316,8.289 -1.006,7.24 -0.213,6.989 0.049,6.631 0.021,5.808 -0.043,3.938 0,2.065 0,0" /></g><g
           transform="translate(310.9785,306.5972)"
           id="g140"><path
             id="path142"
             style="fill:#d9383f;fill-opacity:1;fill-rule:evenodd;stroke:none"
             d="m 0,0 c 1.095,-1.802 2.292,-3.551 3.255,-5.421 0.88,-1.707 2.294,-2.422 4.031,-2.566 1.914,-0.159 3.827,-0.02 5.638,0.766 1.567,0.68 2.499,1.845 2.641,3.541 0.209,2.509 0.158,4.97 -1.773,6.95 C 11.14,5.989 6.018,6.105 3.266,3.49 2.802,3.05 2.358,2.588 1.905,2.136 0.808,1.04 -0.545,1.075 -1.909,2.236 -2.663,2.879 -2.693,4.639 -2.05,5.651 c 2.692,4.231 6.728,5.017 11.302,4.474 1.627,-0.194 3.206,-0.499 4.735,-1.16 3.629,-1.569 5.261,-4.561 5.803,-8.212 0.365,-2.456 0.231,-4.94 -0.809,-7.295 -0.871,-1.974 -2.373,-3.249 -4.395,-3.766 -4.208,-1.076 -8.255,-0.477 -12.008,1.689 -1.545,0.893 -2.502,2.344 -2.74,4.161 C -0.353,-2.999 -0.278,-1.531 0,0" /></g><g
           transform="translate(578.8291,289.2061)"
           id="g144"><path
             id="path146"
             style="fill:#4ea134;fill-opacity:1;fill-rule:nonzero;stroke:none"
             d="m 0,0 c -5.595,-5.019 -11.185,-8.906 -13.48,-10.442 0.14,-0.12 0.244,-0.221 0.36,-0.291 2.669,-1.616 5.627,-1.862 8.646,-1.837 7.991,0.064 14.672,5.15 16.815,12.831 1.181,4.239 1.334,8.567 1.07,12.929 -0.015,0.256 -0.014,0.775 -0.243,0.695 C 10.901,11.179 5.522,4.952 0,0" /></g><g
           transform="translate(581.5879,292.8242)"
           id="g148"><path
             id="path150"
             style="fill:#368943;fill-opacity:1;fill-rule:nonzero;stroke:none"
             d="m 0,0 c 0.088,0.124 0.183,0.241 0.254,0.379 0.65,0.573 1.396,1.045 1.879,1.793 0.32,0.284 0.68,0.522 0.965,0.848 0.546,0.565 1.117,1.107 1.678,1.658 0.353,0.358 0.699,0.711 1.036,1.057 0.27,0.292 0.535,0.59 0.785,0.903 0.901,0.977 1.784,1.882 2.782,2.848 0.28,0.302 0.549,0.591 0.789,0.852 C 10.014,10.337 9.789,10.287 9.691,10.267 4.039,9.098 -1.666,8.133 -7.113,6.134 -11.048,4.69 -14.729,2.885 -17.17,-0.771 c -2.502,-3.748 -2.286,-8.782 0.072,-12.39 0.108,-0.164 0.202,-0.239 0.298,-0.278 2.211,1.522 7.822,5.505 13.504,10.448 C -2.201,-2.038 -1.094,-1.027 0,0" /></g><g
           transform="translate(586.3643,297.502)"
           id="g152"><path
             id="path154"
             style="fill:#368943;fill-opacity:1;fill-rule:nonzero;stroke:none"
             d="M 0,0 C -0.562,-0.551 -1.133,-1.093 -1.679,-1.658 -1.964,-1.983 -2.323,-2.222 -2.644,-2.506 -3.126,-3.254 -3.872,-3.726 -4.522,-4.299 -4.594,-4.437 -4.688,-4.554 -4.776,-4.678 -3.114,-3.114 -1.491,-1.513 0,0" /></g><g
           transform="translate(587.3994,298.5596)"
           id="g156"><path
             id="path158"
             style="fill:#023008;fill-opacity:1;fill-rule:nonzero;stroke:none"
             d="M 0,0 C -0.337,-0.347 -0.683,-0.699 -1.035,-1.058 -0.684,-0.712 -0.336,-0.361 0,0" /></g></g></g></g></svg>